# xmcd
#
# Track frame offsets: 
#        150
#        16304
#        34952
#        51074
#        71462
#        89765
#        111357
#        133964
#        156342
#        179605
#        200627
#
# Disc length: 2925 seconds
#
# Revision: 0
# Processed by: cddbd v1.5.2PL0 Copyright (c) Steve Scherf et al.
# Submitted via: ExactAudioCopy v1.0b3
#
DISCID=a60b6b0b
DTITLE=前野曜子 - 一人で(アローン) (紙ジャケット仕様) GRCL-6017
DYEAR=1900
DGENRE=Blues
TTITLE0=星ふる夏
TTITLE1=ジャズ・シンガー
TTITLE2=さようならの紅いバラ
TTITLE3=ジャスト・イルージョン
TTITLE4=別れの朝
TTITLE5=マイ・ライフ
TTITLE6=ロング・ディスタンス
TTITLE7=JUST LIKE YOU AND ME
TTITLE8=再会にKISS
TTITLE9=ラヴ・イズ・ミステリアス (Bonus Track)
TTITLE10=イフ・アイ・ハヴ・トゥ・ゴー・アウェイ (Bonus Track)
EXTD=
EXTT0=
EXTT1=
EXTT2=
EXTT3=
EXTT4=
EXTT5=
EXTT6=
EXTT7=
EXTT8=
EXTT9=
EXTT10=
PLAYORDER=
